# xmcd
#
# Track frame offsets:
#	150
#	20208
#	34599
#	51759
#	70859
#	85898
#	107784
#	122732
#	141327
#	160511
#	178082
#
# Disc length: 2560 seconds
#
# Revision: 0
# Processed by: cddbd v1.5.2PL0 Copyright (c) Steve Scherf et al.
# Submitted via: dBpowerAMP V4.0
#
DISCID=9409fe0b
DTITLE=Tracy Chapman - Our Bright Future
DYEAR=2008
DGENRE=Blues
TTITLE0=Sing For You
TTITLE1=I Did It All
TTITLE2=Save Us All
TTITLE3=Our Bright Future
TTITLE4=For A Dream
TTITLE5=Thinking Of You
TTITLE6=A Theory
TTITLE7=Conditional
TTITLE8=Something To See
TTITLE9=The First Person On Earth
TTITLE10=Spring
EXTD=Signupnow's Work.
EXTT0=
EXTT1=
EXTT2=
EXTT3=
EXTT4=
EXTT5=
EXTT6=
EXTT7=
EXTT8=
EXTT9=
EXTT10=
PLAYORDER=
